<?xml version="1.0"?><svg version="1.2" baseProfile="tiny-ps" viewBox="0 0 300 300" xmlns="http://www.w3.org/2000/svg" xmlns:xlink="http://www.w3.org/1999/xlink"><title>Secure Folder Windows App</title><g><g fill="#fff" transform="matrix(.1 0 0 -.1 0 300)"><path d="M1365 2993c-16-2-73-10-125-19l-95-15-116-39c-239-79-423-195-600-377-172-176-273-341-349-572-48-144-69-259-77-421l-6-125 17-115c53-357 192-637 437-877C666 222 908 94 1210 29l105-23h370l105 23c214 46 417 134 586 254l87 62 96 96 96 96 62 87c120 169 208 372 254 586l23 105v370l-23 105c-65 302-193 544-404 759-238 243-520 384-868 435l-107 16-98-1c-55-1-112-4-129-6z"/></g><g fill="#c1e0c1" transform="matrix(.1 0 0 -.1 0 300)"><path d="M1365 2993c-16-2-73-10-125-19l-95-15-116-39c-239-79-423-195-600-377-172-176-273-341-349-572-48-144-69-259-77-421l-6-125 17-115c53-357 192-637 437-877C666 222 908 94 1210 29l105-23h370l105 23c214 46 417 134 586 254l87 62 96 96 96 96 62 87c120 169 208 372 254 586l23 105v370l-23 105c-65 302-193 544-404 759-238 243-520 384-868 435l-107 16-98-1c-55-1-112-4-129-6zm616-802 67-33 56-56 57-57 29-60 29-61 11-67 10-67-10-67-11-68-29-62-30-61-56-56-56-56-62-30-62-31-67-11-67-11-67 11-67 11-62 31-62 30-56 56-56 56-30 61-29 62-11 68-10 67 10 67 11 67 29 61 29 60 53 53c61 60 102 87 173 114l50 18 110-3 110-3 66-33zm-659-670 26-48-228-228-229-228-5-20-5-19 24-24c13-13 30-24 37-24 6 0 117 104 244 231l232 232 50-37c28-20 71-45 96-57l46-20v-95l-12-12-12-12h-146v-146l-12-12-12-12h-146V854l-16-22-15-22h-140l-29-22-30-22H875l-38 13-39 13-13 32c-14 33-18 73-16 171l1 59 257 258c142 142 260 258 263 258s17-22 32-49zm549 547-45-23-20-28-21-28v-108l21-27c11-15 33-37 48-48l27-21h108l27 21c15 11 36 32 47 45l18 26 5 39 5 39-23 45-23 45-30 17c-16 9-46 19-65 23l-35 6-44-23z"/></g><g fill="#68b568" transform="matrix(.1 0 0 -.1 0 300)"><path d="M1365 2993c-16-2-73-10-125-19l-95-15-116-39c-239-79-423-195-600-377-172-176-273-341-349-572-48-144-69-259-77-421l-6-125 17-115c53-357 192-637 437-877C666 222 908 94 1210 29l105-23h370l105 23c214 46 417 134 586 254l87 62 96 96 96 96 62 87c120 169 208 372 254 586l23 105v370l-23 105c-65 302-193 544-404 759-238 243-520 384-868 435l-107 16-98-1c-55-1-112-4-129-6zm506-763c30-6 81-23 115-39l61-29 57-56 56-56 30-60 30-59 12-71 12-70-12-71-12-71-25-51-24-52-49-55-50-55-53-32-54-32-60-16-59-15h-112l-59 15-60 16-54 32-53 32-50 55-49 55-24 52-25 51-12 71-12 71 12 70 12 71 30 59 30 60 56 56 57 56 62 29c98 46 178 57 276 39zm-751-985-230-231v-25c0-32 17-49 50-49h25l225 225c124 124 228 225 232 225s27-15 51-32c23-18 66-44 95-57l52-24v-33c0-18-4-44-10-58l-9-25-78-3-78-3-3-75-3-75-16-12-17-13h-136V849l-10-20-11-19h-153l-24-22-24-23H855l-30 15-30 15-15 30-15 30v195l265 265 264 264 28-51 28-52-230-231zm743 819c-36-18-61-51-74-97l-9-31 11-40 11-41 34-31 33-32 40-7 40-7 45 21 45 20 21 33 20 33v106l-38 41-39 41-54 4-54 4-32-17z"/></g><g fill="#028202" transform="matrix(.1 0 0 -.1 0 300)"><path d="M1365 2993c-16-2-73-10-125-19l-95-15-116-39c-239-79-423-195-600-377-172-176-273-341-349-572-48-144-69-259-77-421l-6-125 17-115c53-357 192-637 437-877C666 222 908 94 1210 29l105-23h370l105 23c214 46 417 134 586 254l87 62 96 96 96 96 62 87c120 169 208 372 254 586l23 105v370l-23 105c-65 302-193 544-404 759-238 243-520 384-868 435l-107 16-98-1c-55-1-112-4-129-6zm557-773 64-20 47-31c26-17 68-54 93-82l47-52 31-65 31-65v-230l-36-75-36-75-49-49c-61-61-106-90-183-116l-60-20h-162l-60 20c-77 26-122 55-183 116l-49 49-36 75-36 75v230l31 65 31 65 46 51c60 67 115 103 196 131l66 22 71 1h72l64-20zm-591-698 26-47-235-236-235-237 7-26 6-26 26-6 26-7 233 233 232 232 46-35c25-19 71-47 102-61l55-27v-92l-17-19-16-18h-137v-126l-16-22-15-22h-149V834l-12-12-12-12h-140l-24-22-24-23-90-4-90-3-43 16-43 17-13 32-14 32v195l265 265c145 145 266 262 269 259s17-26 32-52zm539 540-35-17-22-34-23-34v-79l16-34 16-34 35-21 34-21 55 4 54 5 26 24c14 13 33 37 41 53l15 29-5 45-5 44-19 27c-11 14-35 34-54 43l-34 18h-60l-35-18z"/></g></g></svg>